<?xml version="1.0" encoding="utf-8"?>
<!-- Svg Vector Icons : http://www.onlinewebfonts.com/icon -->
<!DOCTYPE svg PUBLIC "-//W3C//DTD SVG 1.1//EN" "http://www.w3.org/Graphics/SVG/1.1/DTD/svg11.dtd">
<svg version="1.1" xmlns="http://www.w3.org/2000/svg" xmlns:xlink="http://www.w3.org/1999/xlink" x="0px" y="0px" viewBox="0 0 1000 1000" enable-background="new 0 0 1000 1000" xml:space="preserve">
<metadata> Svg Vector Icons : http://www.onlinewebfonts.com/icon </metadata>
<g><g><path d="M500,10C229.4,10,10,229.4,10,500c0,270.6,219.4,490,490,490s490-219.4,490-490C990,229.4,770.6,10,500,10z M689.9,612.5c-2.8,49.9-19,94.9-48.8,135c-15,20.2-32.2,38.2-52.5,53.3c-26,19.2-54.9,31.9-86.6,38.5c-23.4,4.9-47.1,6.3-70.9,5.1c-25.7-1.3-50.7-6-74.8-15.2c-25.8-9.9-49-24.2-69.4-42.9c-27.5-25.3-49.2-54.8-64.1-89.2c-9.2-21.3-15-43.5-17.9-66.5c-2.1-16.3-2.6-32.7-1.7-49c3-56.9,22.8-107.2,59.8-150.7c16.7-19.6,35.6-36.7,57.4-50.3c23-14.4,47.8-24.2,74.3-29.4c22.2-4.4,44.5-5.9,67.1-4.6c21.1,1.2,41.8,4.7,61.9,11.2c2.3,0.8,4.9,1.2,7.2,3c-4.3,9.1-8.4,18.3-11.5,27.9c-3.1,9.6-5.1,19.4-6.4,29.8c-1.9-0.6-3.3-0.9-4.5-1.4c-14.8-5.8-30.3-9.2-46.2-10.4c-12.4-1-24.8-0.9-37.2,0.6c-14,1.6-27.6,4.8-40.8,9.8c-20.4,7.7-38.6,19.2-54.8,33.8c-21,18.9-37.9,40.8-49.4,66.7c-7.7,17.4-12.5,35.6-14.8,54.5c-1.9,15.4-2.2,30.9-0.7,46.3c2.6,26.3,10.2,51.1,22.8,74.3c11.8,21.8,27,40.8,46.5,56.1c22.6,17.8,48,29.4,76.3,34.9c2.5,0.5,4.5,0.2,6.8-0.7c20.7-8.6,39-20.9,55-36.4c17.5-16.9,31.4-36.5,42.9-57.9c13-24,22.6-49.3,30.3-75.5c6.2-21.3,11-42.9,14.7-64.7c3-17.4,5.2-34.9,7-52.4c3.9-38,4.9-76.1,4.1-114.3c-0.2-6.5-0.6-14.1-0.8-21.4c-0.5-3.9-0.7-5.4-0.9-6.2l-1.6-2.9c-5.4-13.9-10.5-27.9-16.1-41.7c-20.5-50.4-44.5-99-71.8-146.1c-1.2-2-2.4-4-3.5-6.1c-0.2-0.4,0-1,0.1-1.9c1.9,1.5,3.4,2.7,4.9,3.9c15.7,13.5,28.6,29.3,39.8,46.7c16.2,25.1,27.8,52.3,36,81c6,21.2,10,42.7,12.3,64.6c0,0.3,0.1,1.6,0.1,2.3c0.1,0.8,0.3,2,0.9,6.2c0.6,1.1,1.5,3,1.8,3.8c9.4,25.2,16.7,50.9,21.3,77.4c4.1,23.3,6.2,46.7,5.6,70.4c-1.1,48.4-12,94.5-33.5,137.9C540,701.6,503.5,745,457.1,780.2c-2.3,1.7-4.6,3.4-6.9,5.2c-0.1,0.1-0.1,0.3-0.3,1.3c4.5-0.2,8.6-0.1,12.7-0.5c44.4-4,82.6-21.3,113.7-53.4c21.3-22,35.7-48.1,44.7-77.3c6-19.4,8.6-39.4,8.3-59.6c-0.3-24.3-4.3-48-13.2-70.7c-0.3-0.8-0.6-1.7-0.9-2.5c-0.1-0.3-0.1-0.7-0.1-1.3c6.5-1.9,13-3.6,19.4-5.8c6.3-2.2,12.5-4.7,18.5-7.4c6.2-2.8,12.2-6.2,18.5-9.4c0.5,1.1,1.1,2.2,1.6,3.3c6.5,16.1,10.8,32.8,13.7,49.8C690,571.8,691,592.1,689.9,612.5z M796.8,306.3c-1.2,19.8-5,39.2-11.5,58.1c-3.1,9.1-7.6,17.5-12.4,25.7c-8.3,14.2-18.2,27.2-30.7,38c-12.9,11.2-27.7,18.6-44.6,21.6c-14,2.4-27.6,1.2-41-3.2c-14.2-4.7-26.7-12.4-38.1-22c-3-2.5-5.9-5.3-8.9-8c1.2-2.1,3.2-2.7,4.8-3.6c22.3-12.9,43.8-27.1,64.2-42.7c16.9-12.9,33-26.7,47.2-42.6c8.1-9.2,15.5-18.9,20.9-30c2.4-5,4.4-10.2,5.6-15.7c0.2-1,0.2-2,0.3-4.1c-36.2,63.1-88.7,103.1-158.4,120.2c-0.9-1.2-1.5-1.8-1.9-2.6c-8.6-15.5-13.6-32.1-14.4-49.8c-1-21.7,5.5-41.1,18.7-58.3c7.1-9.3,15.8-16.7,25.9-22.5c14.7-8.5,30.4-14.6,46.7-19.4c1.9-0.6,3.8-1.1,5.7-1.5c22.1-5.4,40.8-16.8,57-32.4c10.7-10.3,19.4-22.2,26.3-35.4c1-2,2.2-4,3.6-6.5c1.9,2.9,3.4,5.3,4.8,7.8c10.1,17.4,17.4,35.9,22.6,55.3C795.9,256.7,798.3,281.3,796.8,306.3z"/></g><g></g><g></g><g></g><g></g><g></g><g></g><g></g><g></g><g></g><g></g><g></g><g></g><g></g><g></g><g></g></g>
</svg>